<svg width="100%" viewBox="0 0 680 575" role="img" xmlns="http://www.w3.org/2000/svg">
<title>GalaxC programming language logo</title>
<desc>Purple galaxy-themed logo for the GalaxC programming language, with the letter G forming the galactic core surrounded by sweeping spiral arms and stars</desc>

<defs>
  <clipPath id="gBound">
    <circle cx="340" cy="222" r="207"/>
  </clipPath>
</defs>

<circle cx="340" cy="222" r="207" fill="#060010"/>
<circle cx="340" cy="222" r="207" fill="none" stroke="#6b21a8" stroke-width="1.5" opacity="0.45"/>

<g clip-path="url(#gBound)">

  <g fill="#ddd6fe">
    <circle cx="205" cy="95" r="1.2"/><circle cx="240" cy="70" r="0.9"/>
    <circle cx="278" cy="57" r="1.4"/><circle cx="322" cy="49" r="1"/>
    <circle cx="368" cy="50" r="0.8"/><circle cx="410" cy="60" r="1.3"/>
    <circle cx="450" cy="79" r="0.9"/><circle cx="485" cy="105" r="1.1"/>
    <circle cx="510" cy="139" r="0.8"/><circle cx="524" cy="177" r="1.2"/>
    <circle cx="528" cy="219" r="0.9"/><circle cx="520" cy="262" r="1"/>
    <circle cx="503" cy="301" r="1.3"/><circle cx="475" cy="335" r="0.8"/>
    <circle cx="440" cy="363" r="1.1"/><circle cx="398" cy="382" r="0.9"/>
    <circle cx="352" cy="390" r="1.2"/><circle cx="305" cy="385" r="0.8"/>
    <circle cx="263" cy="367" r="1"/><circle cx="228" cy="341" r="1.3"/>
    <circle cx="202" cy="308" r="0.9"/><circle cx="184" cy="269" r="1.1"/>
    <circle cx="178" cy="225" r="0.8"/><circle cx="182" cy="180" r="1"/>
    <circle cx="196" cy="139" r="1.2"/><circle cx="220" cy="107" r="0.8"/>
  </g>

  <g fill="#c4b5fd">
    <circle cx="248" cy="85" r="0.9"/><circle cx="298" cy="67" r="1.1"/>
    <circle cx="355" cy="55" r="0.7"/><circle cx="425" cy="72" r="1"/>
    <circle cx="470" cy="112" r="0.8"/><circle cx="500" cy="162" r="1.2"/>
    <circle cx="512" cy="207" r="0.7"/><circle cx="504" cy="255" r="0.9"/>
    <circle cx="480" cy="295" r="1.1"/><circle cx="447" cy="327" r="0.7"/>
    <circle cx="405" cy="355" r="1"/><circle cx="358" cy="374" r="0.8"/>
    <circle cx="310" cy="372" r="1.1"/><circle cx="268" cy="355" r="0.7"/>
    <circle cx="235" cy="327" r="1"/><circle cx="210" cy="292" r="0.8"/>
    <circle cx="192" cy="252" r="1.2"/><circle cx="188" cy="207" r="0.7"/>
    <circle cx="196" cy="162" r="1"/><circle cx="215" cy="125" r="0.8"/>
    <circle cx="255" cy="112" r="0.9"/><circle cx="380" cy="55" r="0.7"/>
    <circle cx="440" cy="97" r="0.9"/><circle cx="495" cy="132" r="0.7"/>
    <circle cx="490" cy="242" r="0.8"/><circle cx="460" cy="315" r="0.9"/>
    <circle cx="320" cy="382" r="0.7"/><circle cx="248" cy="337" r="0.8"/>
  </g>

  <g fill="#f5f3ff">
    <circle cx="262" cy="102" r="2.2"/><circle cx="455" cy="89" r="1.9"/>
    <circle cx="518" cy="189" r="2.1"/><circle cx="490" cy="309" r="1.9"/>
    <circle cx="355" cy="387" r="2.2"/><circle cx="213" cy="322" r="1.9"/>
    <circle cx="185" cy="192" r="2.1"/><circle cx="295" cy="62" r="1.7"/>
    <circle cx="430" cy="62" r="1.7"/><circle cx="505" cy="245" r="1.7"/>
    <circle cx="162" cy="252" r="2"/><circle cx="242" cy="375" r="1.7"/>
  </g>

  <g transform="translate(340,222) rotate(-22)">
    <ellipse rx="190" ry="53" fill="#2e0059" opacity="0.7"/>
    <ellipse rx="160" ry="41" fill="#4c1d95" opacity="0.6"/>
    <ellipse rx="122" ry="29" fill="#5b21b6" opacity="0.55"/>
    <ellipse rx="82" ry="19" fill="#6d28d9" opacity="0.5"/>
  </g>

  <path d="M 352,207 C 398,168 455,126 508,90 C 530,76 548,60 548,48"
        fill="none" stroke="#4c1d95" stroke-width="60" stroke-linecap="round" opacity="0.35"/>
  <path d="M 352,207 C 398,168 455,126 508,90 C 530,76 548,60 548,48"
        fill="none" stroke="#7c3aed" stroke-width="32" stroke-linecap="round" opacity="0.5"/>
  <path d="M 352,207 C 398,168 455,126 508,90 C 530,76 548,60 548,48"
        fill="none" stroke="#a855f7" stroke-width="14" stroke-linecap="round" opacity="0.6"/>
  <path d="M 352,207 C 398,168 455,126 508,90 C 530,76 548,60 548,48"
        fill="none" stroke="#e9d5ff" stroke-width="3.5" stroke-linecap="round" opacity="0.5"/>

  <g fill="#e9d5ff">
    <circle cx="398" cy="177" r="1.8"/><circle cx="425" cy="157" r="1.5"/>
    <circle cx="453" cy="136" r="1.9"/><circle cx="478" cy="115" r="1.6"/>
    <circle cx="500" cy="96" r="1.8"/><circle cx="520" cy="80" r="1.4"/>
    <circle cx="535" cy="66" r="1.6"/>
  </g>

  <path d="M 328,237 C 282,276 226,316 174,353 C 152,370 133,387 130,402"
        fill="none" stroke="#4c1d95" stroke-width="60" stroke-linecap="round" opacity="0.35"/>
  <path d="M 328,237 C 282,276 226,316 174,353 C 152,370 133,387 130,402"
        fill="none" stroke="#7c3aed" stroke-width="32" stroke-linecap="round" opacity="0.5"/>
  <path d="M 328,237 C 282,276 226,316 174,353 C 152,370 133,387 130,402"
        fill="none" stroke="#a855f7" stroke-width="14" stroke-linecap="round" opacity="0.6"/>
  <path d="M 328,237 C 282,276 226,316 174,353 C 152,370 133,387 130,402"
        fill="none" stroke="#e9d5ff" stroke-width="3.5" stroke-linecap="round" opacity="0.5"/>

  <g fill="#e9d5ff">
    <circle cx="287" cy="275" r="1.8"/><circle cx="260" cy="300" r="1.5"/>
    <circle cx="230" cy="326" r="1.9"/><circle cx="205" cy="348" r="1.6"/>
    <circle cx="183" cy="365" r="1.8"/><circle cx="163" cy="380" r="1.4"/>
    <circle cx="147" cy="394" r="1.6"/>
  </g>

  <circle cx="340" cy="222" r="70" fill="#3b0764" opacity="0.95"/>
  <circle cx="340" cy="222" r="52" fill="#5b21b6" opacity="0.95"/>
  <circle cx="340" cy="222" r="36" fill="#7c3aed" opacity="0.95"/>
  <circle cx="340" cy="222" r="21" fill="#a78bfa" opacity="0.95"/>
  <circle cx="340" cy="222" r="9" fill="#ede9fe"/>

  <text x="340" y="254" text-anchor="middle"
        font-family="'Arial Black', 'Arial', sans-serif"
        font-size="84" font-weight="900" fill="white">G</text>

</g>

</svg>
